<svg xmlns="http://www.w3.org/2000/svg" width="1200" height="280" viewBox="0 0 1200 280" role="img" aria-label="Akash Senthil — Mobile Engineer">
  <defs>
    <pattern id="grid" width="32" height="32" patternUnits="userSpaceOnUse">
      <path d="M32 0H0V32" fill="none" stroke="#d0d7de" stroke-width="1" opacity=".55"/>
    </pattern>
    <linearGradient id="fade" x1="0" x2="1">
      <stop offset="0" stop-color="#f6f8fa" stop-opacity="1"/>
      <stop offset=".55" stop-color="#f6f8fa" stop-opacity=".85"/>
      <stop offset="1" stop-color="#f6f8fa" stop-opacity="0"/>
    </linearGradient>
  </defs>
  <rect width="1200" height="280" rx="16" fill="#f6f8fa"/>
  <rect width="1200" height="280" rx="16" fill="url(#grid)"/>
  <rect width="1200" height="280" rx="16" fill="url(#fade)"/>
  <rect x="0.5" y="0.5" width="1199" height="279" rx="16" fill="none" stroke="#d0d7de"/>
  <rect x="64" y="72" width="6" height="136" rx="3" fill="#0969da"/>
  <g font-family="-apple-system, BlinkMacSystemFont, 'Segoe UI', Helvetica, Arial, sans-serif">
    <text x="96" y="118" font-size="54" font-weight="700" fill="#1f2328">Akash Senthil</text>
    <text x="98" y="162" font-size="24" font-weight="500" fill="#0969da">Mobile Engineer · Flutter &amp; Cross-Platform</text>
    <text x="98" y="202" font-size="18" fill="#59636e">Production apps from architecture → CI/CD → App Store &amp; Play Store</text>
  </g>
  <!-- phone glyph -->
  <g transform="translate(930 44)">
    <rect x="0" y="0" width="120" height="192" rx="20" fill="#ffffff" stroke="#0969da" stroke-width="3"/>
    <rect x="44" y="10" width="32" height="6" rx="3" fill="#d0d7de"/>
    <rect x="14" y="30" width="92" height="44" rx="8" fill="#ddf4ff"/>
    <rect x="14" y="84" width="42" height="42" rx="8" fill="#0969da" opacity=".85"/>
    <rect x="64" y="84" width="42" height="42" rx="8" fill="#54aeff" opacity=".7"/>
    <rect x="14" y="136" width="92" height="10" rx="5" fill="#d0d7de"/>
    <rect x="14" y="154" width="60" height="10" rx="5" fill="#d0d7de"/>
    <path d="M150 64 l38 -38 h28 l-38 38z M150 64 l38 38 h28 l-38 -38z M188 102 l28 0 l-24 24 h-28z" fill="#02569B" opacity=".9"/>
  </g>
</svg>
